# xmcd
#
# Track frame offsets:
#	150
#	12418
#	24914
#	40882
#	59071
#	71350
#	92190
#	105417
#	118239
#	132811
#	149520
#	163326
#	174861
#	188617
#
# Disc length: 2776
#
# Revision: 1
# Processed by: cddbd v1.5.1PL0 Copyright (c) Steve Scherf et al.
# Submitted via: EasyCDDAExtractor 5.0.5.1
# Normalized: r0:DSETVAR1
#
DISCID=bf0ad60e
DTITLE=Various Artist - Mr Music Country 2003 09
DYEAR=1900
DGENRE=Country
TTITLE0=Vernon Oxford - Motel Room In Bristol
TTITLE1=Porter Wagoner - Dusty Delta Memories
TTITLE2=Michael Ballew - Blue Water
TTITLE3=Michael Woody - Drinkin' Stories
TTITLE4=Sammy Rose - Fools' Gold
TTITLE5=Jon Emery - I Bought Her Roses
TTITLE6=Billy Stone - Holmes County Home
TTITLE7=Ray Campi with Rosie Flores - Haunted Hungry Heart
TTITLE8=The Offenders With Johnny Bush - Can't Get The Hell Out Of Texas
TTITLE9=Elizabeth McQueen and The Firebrands - Freight Train
TTITLE10=Billy Parker and Darrell McCall - (Who's Gonna Sing) The Last Country Song
TTITLE11=Sanford Clark - Mother Texas (You've Been A Mother To Me)
TTITLE12=Billy Paul - 501
TTITLE13=Larry Cordle and Lonesome Standard Time - Murder On Music Row
EXTD=
EXTT0=
EXTT1=
EXTT2=
EXTT3=
EXTT4=
EXTT5=
EXTT6=
EXTT7=
EXTT8=
EXTT9=
EXTT10=
EXTT11=
EXTT12=
EXTT13=
PLAYORDER=
